<svg xmlns="http://www.w3.org/2000/svg" viewBox="0 0 141 141"><path d="M129 141H15c-7.3-2.6-9-8.3-8.9-15.3.1-21.1.1-42.3 0-63.4 0-3.6.9-6.2 3.7-8.6 13-11.3 25.8-22.9 38.7-34.4C55.9 12.8 63.5 6.4 71 0h2c7.8 6.7 15.6 13.3 23.3 20 14 12.3 27.8 24.6 41.7 37v74c-1.3 4.9-4.3 8.2-9 10zm-4.2-83.1C107 42.2 89.6 27 72 11.4 54.3 27 37 42.3 19.2 57.9c2.4 2.2 4.4 3.9 6.3 5.6 8.2 7.1 17 13.8 24.6 21.6 7.6 7.9 15.6 12.8 26.9 11 3.1-.5 5.5-1 7.9-3.2 7.6-7.1 15.6-13.8 23.4-20.6 5.4-4.7 10.7-9.3 16.5-14.4zm-9 73.7c-1-1.2-1.3-1.8-1.8-2.2-8.1-7-16.1-14.2-24.5-21-2.1-1.7-5.3-2.3-8.1-2.6-5-.4-10 .3-15-.2-6.7-.6-11.8 1.3-16.3 6.4-2.8 3.2-6.6 5.5-9.8 8.3-4 3.5-7.9 7.1-12.5 11.4 29.9-.1 58.5-.1 88-.1zm12.3-63.2c-12.1 10.4-23.5 20.1-35 29.9 11.7 10.1 23 20 35 30.3V68.4zm-112.2-.1v60.4c12.1-10.5 23.4-20.3 35-30.4-11.5-9.8-22.9-19.6-35-30z"/></svg>