<svg xmlns="http://www.w3.org/2000/svg" viewBox="0 0 141 141"><path d="M119 142H90c-.7-1.6-1.9-3.1-1.9-4.7-.1-19.5 0-39-.2-58.4 0-3.1 1.2-4.2 4-4.2h10.9c.3-2.4.5-4.1.8-6.7H88.4c-1.2-17.9-1.1-23 17.9-24.6-2-2-3.1-3.8-4.5-4.1-3-.7-6.3-1-9.4-.9-8.3.2-11.7 3.5-12.4 11.8-.4 4.6-.6 9.3-.7 13.9-.1 2.8-1 4.4-4 4.4-1.3 0-2.6.2-3.9.3v5.4c7.8 1 7.8 1 7.8 8.7 0 17.5 0 35-.1 52.4 0 2.2-.8 4.4-1.3 6.7h-54c-2-.7-4-1.4-5.9-2.1C8.4 136.2 3.7 128.4 1 119V24c.7-2 1.4-4 2.1-5.9C6.8 8.4 14.6 3.7 24 1h95c2 .7 4 1.4 5.9 2.1 9.7 3.7 14.3 11.5 17.1 20.9v95c-.7 2-1.4 4-2.1 5.9-3.7 9.7-11.5 14.4-20.9 17.1zm-50.4-10V85.2c-2.6-.2-4.9-.4-7.2-.6V58.2c2.8-.2 5-.4 7.6-.6 0-2.3-.1-4.3 0-6.3.5-12 7.2-21.7 17.3-23.1 8.7-1.2 17.6-.8 25.9 2.8 1.3.6 2.7 2.5 2.8 3.9.3 5.3.1 10.7.1 16 0 3-1.4 4.2-4.3 4.1-3.2-.1-6.3-.1-9.5.1-.9.1-2.2 2.4-2.1 2.9h17.2c-1.6 8.8-2.9 16.8-4.7 24.8-.2 1-2.4 2-3.8 2.2-2.9.3-5.8.1-8.7.1v47.1h12.7c11.6.1 20.2-8.5 20.2-20 0-27-.1-54 0-80.9 0-11.6-8.5-20.2-20-20.2H30.7c-11 0-19.8 8.6-19.8 19.5 0 27.5-.1 55 0 82.4 0 10.1 8 18.9 17.9 19.2 13.1.1 26.3-.2 39.8-.2z"/></svg>