<svg id="Layer_1" xmlns="http://www.w3.org/2000/svg" viewBox="0 0 141 141"><style>.st0{display:none;fill:#fff}</style><path d="M0 114V28c2.6-5.1 4.8-10.6 7.9-15.3C12.4 5.9 19.8 2.9 27 0h86c8.8 3 16.9 7.3 21.6 15.6 2.7 4.8 4.3 10.3 6.4 15.4v79c-.5 1.7-1.1 3.4-1.5 5.1-3.9 13.7-13.4 21.5-26.5 25.9H27c-7.5-3-14.9-6.3-19.6-13.3-2.9-4.2-5-9.1-7.4-13.7zm130.1-43.4v-35c-.1-14.4-10.1-25.1-24.6-25.3-23.5-.3-47-.3-70.5 0-14.2.2-24.6 10.5-24.8 24.7-.3 23.6-.3 47.3 0 70.9.2 14.2 10.5 24.6 24.7 24.8 23.5.3 47 .3 70.4 0 14.7-.2 24.7-10.9 24.7-25.7.1-11.4.1-22.9.1-34.4z"/><path class="st0" d="M131.1 71.6v34.5c0 14.8-10 25.5-24.7 25.7-23.5.3-47 .3-70.4 0-14.2-.2-24.5-10.6-24.7-24.8-.3-23.6-.3-47.3 0-70.9.1-14.3 10.5-24.6 24.7-24.8 23.5-.3 47-.3 70.4 0 14.6.2 24.6 10.9 24.6 25.3.1 11.7.1 23.3.1 35zm-97.2.5c.1 20.7 16.9 37 37.8 36.9 20.1-.1 37.1-17.4 37.1-37.5-.1-20.7-17.3-37.6-38.1-37.5-20.6.1-37 17.1-36.8 38.1zM111 22.9c-4.7-.1-9 4.2-8.9 8.9.1 4.5 4.2 8.5 8.7 8.6 4.6.1 9.1-4.3 9-8.9-.1-4.5-4.2-8.6-8.8-8.6z"/><path d="M32.9 71.1c-.2-21 16.2-38 36.8-38.1 20.8-.1 38.1 16.8 38.1 37.5.1 20.1-17 37.4-37.1 37.5-20.9.1-37.7-16.2-37.8-36.9zm64.2-.3c.1-15.4-11.7-27.4-26.9-27.4s-27 11.9-27 27.3c-.1 14.9 12 26.9 26.9 26.9 15 0 26.9-11.8 27-26.8zM110 21.9c4.5.1 8.7 4.1 8.8 8.6.1 4.5-4.4 8.9-9 8.9-4.5-.1-8.6-4.1-8.7-8.6-.1-4.7 4.2-9 8.9-8.9z"/></svg>