<svg id="Layer_1" xmlns="http://www.w3.org/2000/svg" viewBox="0 0 24.4 26"><style>.st0{fill:#fddbc4}.st1{fill:#f58421}</style><circle id="XMLID_1_" class="st0" cx="12" cy="13" r="11.5"/><path class="st1" d="M4.8 16.3h-.7c-.2 0-.4-.2-.4-.4 0-.3-.1-.5-.1-.8v-1.3c.1-1 .4-2 .8-2.9.3-.5.6-.9.9-1.2.4-.3.7-.5 1.2-.6.5-.1 1 0 1.4.2.2.1.4.3.6.4.1.1.3.2.4.2.2 0 .3-.1.4-.2.3-.3.6-.5 1-.6.7-.2 1.3-.1 1.9.4.5.4.8.8 1.1 1.3.3.6.5 1.2.7 1.9.1.3.1.6.2.9 0 .2 0 .4.1.6v.8c0 .3 0 .6-.1.8 0 .2-.2.4-.4.4h-1.3c-.3 0-.6-.2-.7-.5v-.5c.1-.3.1-.6.2-.9v-.8c0-.6-.1-1.1-.4-1.6-.1-.2-.2-.3-.4-.4-.3-.2-.6-.2-.8 0-.2.2-.4.5-.5.8-.1.3-.2.6-.2.9v.6c0 .4-.3.7-.7.8-.4 0-.8-.2-.8-.6v-.4c0-.5-.1-1-.3-1.5-.1-.2-.2-.5-.5-.6-.2-.2-.5-.2-.7 0-.2.2-.4.5-.5.7-.2.4-.2.7-.3 1 0 .3-.1.7 0 1 0 .4.1.8.2 1.1.1.4-.1.8-.5.9h-.1c-.2.1-.5.1-.7.1zM17 12.6v-1.5c0-.3-.1-.6-.1-.9 0-.2-.1-.5-.1-.7 0-.2 0-.3.1-.4.2-.2.5-.3.7-.4.2 0 .4-.1.7 0 .3 0 .6.1.8.3.2.1.3.3.3.5 0 .1 0 .2-.1.3 0 .2-.1.4-.1.6 0 .2 0 .4-.1.6v2.8c0 .2 0 .5.1.7 0 .4.1.8.2 1.2 0 .2 0 .4-.2.5-.2.1-.4.2-.6.2h-.7c-.3 0-.6-.1-.8-.2-.2-.1-.3-.3-.2-.6 0-.2.1-.4.1-.6 0-.2.1-.4.1-.6v-1.3c-.1-.2-.1-.4-.1-.5zm1-6c.3 0 .5 0 .7.1.2.1.4.2.5.4.1.2.1.4-.1.6-.1.2-.3.3-.6.3h-.4c-.3 0-.5 0-.7-.1-.2-.1-.5-.2-.6-.4-.1-.2-.1-.4.1-.6.2-.2.5-.3.8-.4 0 .1.2.1.3.1z"/></svg>