<?xml version="1.0" encoding="utf-8"?>
<!-- Generator: Adobe Illustrator 19.2.1, SVG Export Plug-In . SVG Version: 6.00 Build 0)  -->
<svg version="1.1" id="Layer_1" xmlns="http://www.w3.org/2000/svg" xmlns:xlink="http://www.w3.org/1999/xlink" x="0px" y="0px"
	 viewBox="0 0 141 141" style="enable-background:new 0 0 141 141;" xml:space="preserve">
<g>
	<path d="M129,141c-38,0-76,0-114,0c-7.3-2.6-9-8.3-8.9-15.3c0.1-21.1,0.1-42.3,0-63.4c0-3.6,0.9-6.2,3.7-8.6
		c13-11.3,25.8-22.9,38.7-34.4C55.9,12.8,63.5,6.4,71,0c0.7,0,1.3,0,2,0c7.8,6.7,15.6,13.3,23.3,20c14,12.3,27.8,24.6,41.7,37
		c0,24.7,0,49.3,0,74C136.7,135.9,133.7,139.2,129,141z M124.8,57.9C107,42.2,89.6,27,72,11.4C54.3,27,37,42.3,19.2,57.9
		c2.4,2.2,4.4,3.9,6.3,5.6c8.2,7.1,17,13.8,24.6,21.6c7.6,7.9,15.6,12.8,26.9,11c3.1-0.5,5.5-1,7.9-3.2c7.6-7.1,15.6-13.8,23.4-20.6
		C113.7,67.6,119,63,124.8,57.9z M115.8,131.6c-1-1.2-1.3-1.8-1.8-2.2c-8.1-7-16.1-14.2-24.5-21c-2.1-1.7-5.3-2.3-8.1-2.6
		c-5-0.4-10,0.3-15-0.2c-6.7-0.6-11.8,1.3-16.3,6.4c-2.8,3.2-6.6,5.5-9.8,8.3c-4,3.5-7.9,7.1-12.5,11.4
		C57.7,131.6,86.3,131.6,115.8,131.6z M128.1,68.4c-12.1,10.4-23.5,20.1-35,29.9c11.7,10.1,23,20,35,30.3
		C128.1,108.1,128.1,88.7,128.1,68.4z M15.9,68.3c0,20.6,0,39.9,0,60.4c12.1-10.5,23.4-20.3,35-30.4C39.4,88.5,28,78.7,15.9,68.3z"
		/>
</g>
</svg>
