<?xml version="1.0" encoding="utf-8"?>
<!-- Generator: Adobe Illustrator 19.2.1, SVG Export Plug-In . SVG Version: 6.00 Build 0)  -->
<svg version="1.1" id="Layer_1" xmlns="http://www.w3.org/2000/svg" xmlns:xlink="http://www.w3.org/1999/xlink" x="0px" y="0px"
	 viewBox="0 0 141 141" style="enable-background:new 0 0 141 141;" xml:space="preserve">
<path d="M119,142c-9.7,0-19.3,0-29,0c-0.7-1.6-1.9-3.1-1.9-4.7c-0.1-19.5,0-39-0.2-58.4c0-3.1,1.2-4.2,4-4.2c3.6,0,7.2,0,10.9,0
	c0.3-2.4,0.5-4.1,0.8-6.7c-5.5,0-10.4,0-15.2,0c-1.2-17.9-1.1-23,17.9-24.6c-2-2-3.1-3.8-4.5-4.1c-3-0.7-6.3-1-9.4-0.9
	c-8.3,0.2-11.7,3.5-12.4,11.8c-0.4,4.6-0.6,9.3-0.7,13.9c-0.1,2.8-1,4.4-4,4.4c-1.3,0-2.6,0.2-3.9,0.3c0,2,0,3.7,0,5.4
	c7.8,1,7.8,1,7.8,8.7c0,17.5,0,35-0.1,52.4c0,2.2-0.8,4.4-1.3,6.7c-18,0-36,0-54,0c-2-0.7-4-1.4-5.9-2.1C8.4,136.2,3.7,128.4,1,119
	c0-31.7,0-63.3,0-95c0.7-2,1.4-4,2.1-5.9C6.8,8.4,14.6,3.7,24,1c31.7,0,63.3,0,95,0c2,0.7,4,1.4,5.9,2.1
	c9.7,3.7,14.3,11.5,17.1,20.9c0,31.7,0,63.3,0,95c-0.7,2-1.4,4-2.1,5.9C136.2,134.6,128.4,139.3,119,142z M68.6,132
	c0-16,0-31.4,0-46.8c-2.6-0.2-4.9-0.4-7.2-0.6c0-9.1,0-17.7,0-26.4c2.8-0.2,5-0.4,7.6-0.6c0-2.3-0.1-4.3,0-6.3
	c0.5-12,7.2-21.7,17.3-23.1c8.7-1.2,17.6-0.8,25.9,2.8c1.3,0.6,2.7,2.5,2.8,3.9c0.3,5.3,0.1,10.7,0.1,16c0,3-1.4,4.2-4.3,4.1
	c-3.2-0.1-6.3-0.1-9.5,0.1c-0.9,0.1-2.2,2.4-2.1,2.9c5.4,0,10.8,0,17.2,0c-1.6,8.8-2.9,16.8-4.7,24.8c-0.2,1-2.4,2-3.8,2.2
	c-2.9,0.3-5.8,0.1-8.7,0.1c0,16,0,31.3,0,47.1c4.4,0,8.5,0,12.7,0c11.6,0.1,20.2-8.5,20.2-20c0-27-0.1-54,0-80.9
	c0-11.6-8.5-20.2-20-20.2c-27.1,0-54.3,0-81.4,0c-11,0-19.8,8.6-19.8,19.5c0,27.5-0.1,55,0,82.4c0,10.1,8,18.9,17.9,19.2
	C41.9,132.3,55.1,132,68.6,132z"/>
</svg>
