<?xml version="1.0" encoding="utf-8"?>
<!-- Generator: Adobe Illustrator 19.2.1, SVG Export Plug-In . SVG Version: 6.00 Build 0)  -->
<svg version="1.1" id="Layer_1" xmlns="http://www.w3.org/2000/svg" xmlns:xlink="http://www.w3.org/1999/xlink" x="0px" y="0px"
	 viewBox="0 0 141 141" style="enable-background:new 0 0 141 141;" xml:space="preserve">
<style type="text/css">
	.st0{display:none;fill:#FFFFFF;}
</style>
<g>
	<path d="M0,114c0-28.7,0-57.3,0-86c2.6-5.1,4.8-10.6,7.9-15.3C12.4,5.9,19.8,2.9,27,0c28.7,0,57.3,0,86,0c8.8,3,16.9,7.3,21.6,15.6
		c2.7,4.8,4.3,10.3,6.4,15.4c0,26.3,0,52.7,0,79c-0.5,1.7-1.1,3.4-1.5,5.1c-3.9,13.7-13.4,21.5-26.5,25.9c-28.7,0-57.3,0-86,0
		c-7.5-3-14.9-6.3-19.6-13.3C4.5,123.5,2.4,118.6,0,114z M130.1,70.6c0-11.7,0-23.3,0-35C130,21.2,120,10.5,105.5,10.3
		C82,10,58.5,10,35,10.3C20.8,10.5,10.4,20.8,10.2,35c-0.3,23.6-0.3,47.3,0,70.9c0.2,14.2,10.5,24.6,24.7,24.8
		c23.5,0.3,47,0.3,70.4,0c14.7-0.2,24.7-10.9,24.7-25.7C130.1,93.6,130.1,82.1,130.1,70.6z"/>
	<path class="st0" d="M131.1,71.6c0,11.5,0,23,0,34.5c0,14.8-10,25.5-24.7,25.7c-23.5,0.3-47,0.3-70.4,0
		c-14.2-0.2-24.5-10.6-24.7-24.8c-0.3-23.6-0.3-47.3,0-70.9C11.4,21.8,21.8,11.5,36,11.3c23.5-0.3,47-0.3,70.4,0
		C121,11.5,131,22.2,131,36.6C131.1,48.3,131.1,59.9,131.1,71.6z M33.9,72.1C34,92.8,50.8,109.1,71.7,109
		c20.1-0.1,37.1-17.4,37.1-37.5C108.7,50.8,91.5,33.9,70.7,34C50.1,34.1,33.7,51.1,33.9,72.1z M111,22.9c-4.7-0.1-9,4.2-8.9,8.9
		c0.1,4.5,4.2,8.5,8.7,8.6c4.6,0.1,9.1-4.3,9-8.9C119.7,27,115.6,22.9,111,22.9z"/>
	<path d="M32.9,71.1C32.7,50.1,49.1,33.1,69.7,33c20.8-0.1,38.1,16.8,38.1,37.5c0.1,20.1-17,37.4-37.1,37.5
		C49.8,108.1,33,91.8,32.9,71.1z M97.1,70.8c0.1-15.4-11.7-27.4-26.9-27.4c-15.2,0-27,11.9-27,27.3c-0.1,14.9,12,26.9,26.9,26.9
		C85.1,97.6,97,85.8,97.1,70.8z"/>
	<path d="M110,21.9c4.5,0.1,8.7,4.1,8.8,8.6c0.1,4.5-4.4,8.9-9,8.9c-4.5-0.1-8.6-4.1-8.7-8.6C101,26.1,105.3,21.8,110,21.9z"/>
</g>
</svg>
