<?xml version="1.0" encoding="utf-8"?>
<!-- Generator: Adobe Illustrator 19.2.1, SVG Export Plug-In . SVG Version: 6.00 Build 0)  -->
<svg version="1.1" id="Layer_1" xmlns="http://www.w3.org/2000/svg" xmlns:xlink="http://www.w3.org/1999/xlink" x="0px" y="0px"
	 viewBox="0 0 1647 535.7" style="enable-background:new 0 0 1647 535.7;" xml:space="preserve">
<g id="logo">
	<path d="M901,488c-11.8-4.8-15.5-14.2-15.7-26.1c-0.4-18.4-2.3-36.8-1.9-55.2c1.4-56,10.8-110.6,34-162.1
		c11.7-25.9,26.4-50,47.1-69.9c16.6-16,35.5-28,58.7-31.8c28.8-4.7,54.6,2.9,77.8,19.8c5.2,3.8,10.1,8.1,14.7,12.6
		c11.9,11.5,27.6,11.6,39.5-0.1c14.3-14.2,30.7-24.8,50.3-30.1c33.7-9.1,63.7-1,90.5,20.5c24.8,19.9,41.6,45.9,55.1,74.1
		c15.1,31.5,24.8,64.8,29.9,99.3c3,19.9,4.6,40.1,5.8,60.3c0.9,15.1,0.4,30.2,0.1,45.3c-0.2,8.4-1,16.9-2.1,25.2
		c-1.3,9.2-7,15.1-15.7,18.1c-25.3,0-50.7,0-76,0c-22.7-6.6-30.2-28.6-24.8-46.5c7.6-25.2,10.6-50.8,9.6-77.1
		c-0.7-19-3.3-37.7-8.7-55.9c-4.9-16.4-11.6-31.9-24.4-43.9c-10.6-10-23-11.5-34.9-3.2c-11.2,7.8-17.7,19.2-22.8,31.4
		c-10.5,25.3-14.7,51.8-14.5,79.1c0.1,5.7-0.5,11.6-1.7,17.2c-3.1,14.3-16.3,25.8-31.2,27.7c-14.9,1.9-29.9-6.2-36.7-19.6
		c-4.3-8.5-4.7-17.5-4.6-26.7c0.3-22.7-3.1-44.9-10.2-66.5c-4.7-14.3-11-27.8-22-38.6c-12.8-12.6-28.3-12.4-41,0.1
		c-15.1,14.9-21.7,34-26.3,53.9c-5.2,22-7.3,44.4-5.8,67.1c1,15.9,2.9,31.7,7.2,47.1c2.6,9.3,5.3,18.5,2.8,28.3
		c-3.4,13.4-12.2,21.7-25,26C952.3,488,926.7,488,901,488z"/>
	<path d="M10,390c0.7-6.9,1.4-13.7,2-20.6c1.9-22.6,6-44.9,11.6-66.9c5.7-22.5,13.3-44.3,23.4-65.1c15.2-31.4,34.5-59.7,64.3-79.1
		c35.7-23.3,72.3-22.4,108.4-0.6c9.1,5.5,17,13.2,25.3,20.1c10.2,8.5,25.3,8,34.9-1.3c17.9-17.4,38.3-29.9,63.5-33.8
		c26.6-4,50.4,2.6,72,17.8c25.3,17.8,43,42.2,57,69.4c18.4,35.7,29.3,73.7,35.6,113.3c4.9,31,6.2,62.1,5.5,93.3
		c-0.3,11.6-1.4,23.2-2.9,34.6c-1.1,8.5-7.3,13.4-14.6,16.9c-25.7,0-51.3,0-77,0c-2.6-1.1-5.3-1.9-7.7-3.3
		c-15.2-8.5-21.2-25-16.8-43.3c3.7-15.4,7.4-31,9-46.7c2.3-22.7,1.2-45.4-3.5-67.9c-4.3-20.8-10.5-41-24.5-57.6
		c-10.9-12.9-26.1-19.2-42.2-5.8c-12.1,10.1-18.4,23.7-23.5,38.1c-8.7,24.7-11.7,50.3-11.4,76.4c0.1,11.6-3.8,21.3-12.3,29.4
		c-10.5,9.9-26,13-40.2,6.2c-13.1-6.3-20.7-17.1-20.8-32c-0.1-20.3-1.4-40.4-6-60.2c-4.5-19.4-10.6-38.2-24.3-53.4
		c-10.5-11.7-25.5-17.2-40.5-5.1c-8.4,6.8-14,15.5-18.5,25c-10.9,22.8-15.3,47.4-16.6,72.3c-1.4,27,0.8,53.8,9,79.8
		c6.3,19.7-2,41.1-24.2,48c-25.7,0-51.3,0-77,0c-9.8-4.5-15-11.8-15.1-22.9c-0.1-6.7-1.2-13.4-1.9-20.1C10,426.7,10,408.3,10,390z"
		/>
	<path d="M1558,488c-8.2-1.7-16.6-2.9-24.6-5.4c-5.4-1.7-10.6-4.7-15.2-8.2c-7.7-5.7-9.9-13.8-7.8-23.1c5.5-24.3,9-48.9,10.1-73.8
		c1.4-32.4,2.9-64.8,2.6-97.2c-0.4-37.5-3.9-74.8-10.9-111.7c-1-5.2-2.6-10.5-2.2-15.6c0.8-10.6,8.2-17,16.7-22.3
		c11-6.8,23.3-9.9,35.9-10.9c18.8-1.4,37.3,0.3,54.3,9.4c3.6,1.9,7.1,4.3,10.3,7c8.1,6.9,10.5,15.9,8.4,26.1
		c-5,24.3-8.8,48.9-9.7,73.7c-1.2,30.4-3.1,60.8-2.5,91.1c0.5,29.3,3.5,58.5,6,87.7c0.9,10.5,3.4,20.9,5.5,31.2
		c4.1,19.7-2.4,30.8-22.5,36.5c-7.9,2.2-16.1,3.4-24.2,5.1C1578,488,1568,488,1558,488z"/>
	<path d="M685,488c-11.1-1.9-22.2-3.5-32.3-9c-12.1-6.6-16.4-15.6-13.6-28.4c1.5-6.8,2.9-13.6,3.9-20.5c1.9-13.9,4-27.9,4.8-41.9
		c1.7-29.3,3.5-58.7,3.4-88.1c-0.1-25.7-1.9-51.4-4.4-77c-1.9-20-5.6-39.9-9.3-59.8c-2.5-13.5,2.5-22.9,13-30.4
		c12.2-8.6,26.3-12,40.8-13c16-1.1,31.9,0.3,47,6.8c7.4,3.2,14.2,7.1,19.4,13.6c4.7,5.8,6.3,12.2,5.2,19.6
		c-3.2,20.8-6.5,41.5-9,62.4c-1.5,11.8-2,23.8-2.2,35.7c-0.5,24-1.4,48-0.6,71.9c1.2,41.1,4,82.1,13.4,122.4
		c2.2,9.4-1.8,18.3-10.8,24.3c-10.4,6.8-22.2,9.4-34.3,10.7c-1.1,0.1-2.2,0.4-3.3,0.7C705.7,488,695.3,488,685,488z"/>
	<path d="M700.6,25c15.4-0.7,30.8,2.5,45.1,10.6c6.2,3.5,11.4,8.1,14.6,14.5c5.5,10.6,1.3,23-10.4,31.6
		c-11.5,8.4-24.7,12.2-38.5,13.6c-19.1,2.1-37.9,0.3-55.2-8.9c-5.6-3-11.1-7.1-15-12.1c-9.4-11.9-5.9-26.3,7.9-35.9
		C662.9,29,677.7,25,700.6,25z"/>
	<path d="M1574.3,96.3c-19.2-0.5-36.1-3.5-50.9-13.6c-6.3-4.3-11.4-9.8-13.1-17.5c-2.6-11.5,3.3-19.6,11.7-26.1
		c11.4-8.9,24.9-12.8,38.9-13.8c16.4-1.2,33-1.2,48.5,5.8c5.9,2.6,11.7,5.7,16.8,9.6c13.8,10.6,13.2,29.1-0.9,40.1
		c-10.6,8.3-23.1,12.3-36.2,14.1C1583.5,95.7,1578,95.9,1574.3,96.3z"/>
</g>
</svg>
