<?xml version="1.0" encoding="utf-8"?>
<!-- Generator: Adobe Illustrator 19.2.1, SVG Export Plug-In . SVG Version: 6.00 Build 0)  -->
<svg version="1.1" id="Layer_1" xmlns="http://www.w3.org/2000/svg" xmlns:xlink="http://www.w3.org/1999/xlink" x="0px" y="0px"
	 viewBox="0 0 24.4 26" style="enable-background:new 0 0 24.4 26;" xml:space="preserve">
<style type="text/css">
	.st0{fill:#FDDBC4;}
	.st1{fill:#F58421;}
</style>
<circle id="XMLID_1_" class="st0" cx="12" cy="13" r="11.5"/>
<g>
	<path class="st1" d="M4.8,16.3c-0.2,0-0.5,0-0.7,0c-0.2,0-0.4-0.2-0.4-0.4c0-0.3-0.1-0.5-0.1-0.8c0-0.4,0-0.9,0-1.3
		c0.1-1,0.4-2,0.8-2.9C4.7,10.4,5,10,5.3,9.7C5.7,9.4,6,9.2,6.5,9.1c0.5-0.1,1,0,1.4,0.2c0.2,0.1,0.4,0.3,0.6,0.4
		c0.1,0.1,0.3,0.2,0.4,0.2c0.2,0,0.3-0.1,0.4-0.2c0.3-0.3,0.6-0.5,1-0.6c0.7-0.2,1.3-0.1,1.9,0.4c0.5,0.4,0.8,0.8,1.1,1.3
		c0.3,0.6,0.5,1.2,0.7,1.9c0.1,0.3,0.1,0.6,0.2,0.9c0,0.2,0,0.4,0.1,0.6c0,0.3,0,0.5,0,0.8c0,0.3,0,0.6-0.1,0.8
		c0,0.2-0.2,0.4-0.4,0.4c-0.4,0-0.9,0-1.3,0c-0.3,0-0.6-0.2-0.7-0.5c0-0.2,0-0.3,0-0.5c0.1-0.3,0.1-0.6,0.2-0.9c0-0.3,0-0.5,0-0.8
		c0-0.6-0.1-1.1-0.4-1.6c-0.1-0.2-0.2-0.3-0.4-0.4c-0.3-0.2-0.6-0.2-0.8,0c-0.2,0.2-0.4,0.5-0.5,0.8c-0.1,0.3-0.2,0.6-0.2,0.9
		c0,0.2,0,0.4,0,0.6c0,0.4-0.3,0.7-0.7,0.8c-0.4,0-0.8-0.2-0.8-0.6c0-0.1,0-0.3,0-0.4c0-0.5-0.1-1-0.3-1.5c-0.1-0.2-0.2-0.5-0.5-0.6
		c-0.2-0.2-0.5-0.2-0.7,0c-0.2,0.2-0.4,0.5-0.5,0.7C6,12.6,6,12.9,5.9,13.2c0,0.3-0.1,0.7,0,1c0,0.4,0.1,0.8,0.2,1.1
		c0.1,0.4-0.1,0.8-0.5,0.9c0,0-0.1,0-0.1,0C5.3,16.3,5,16.3,4.8,16.3z"/>
	<path class="st1" d="M17,12.6c0-0.3,0-0.5,0-0.8c0-0.2,0-0.5,0-0.7c0-0.3-0.1-0.6-0.1-0.9c0-0.2-0.1-0.5-0.1-0.7
		c0-0.2,0-0.3,0.1-0.4c0.2-0.2,0.5-0.3,0.7-0.4c0.2,0,0.4-0.1,0.7,0c0.3,0,0.6,0.1,0.8,0.3c0.2,0.1,0.3,0.3,0.3,0.5
		c0,0.1,0,0.2-0.1,0.3c0,0.2-0.1,0.4-0.1,0.6c0,0.2,0,0.4-0.1,0.6c0,0.1,0,0.1,0,0.2c0,0.1,0,0.3,0,0.4c0,0.5,0,0.9,0,1.4
		c0,0.3,0,0.5,0,0.8c0,0.2,0,0.5,0.1,0.7c0,0.4,0.1,0.8,0.2,1.2c0,0.2,0,0.4-0.2,0.5c-0.2,0.1-0.4,0.2-0.6,0.2c-0.2,0-0.5,0-0.7,0
		c-0.3,0-0.6-0.1-0.8-0.2c-0.2-0.1-0.3-0.3-0.2-0.6c0-0.2,0.1-0.4,0.1-0.6c0-0.2,0.1-0.4,0.1-0.6c0-0.2,0-0.3,0-0.5
		c0-0.3,0-0.5,0-0.8C17,12.9,17,12.7,17,12.6z"/>
	<path class="st1" d="M18,6.6c0.3,0,0.5,0,0.7,0.1c0.2,0.1,0.4,0.2,0.5,0.4c0.1,0.2,0.1,0.4-0.1,0.6C19,7.9,18.8,8,18.5,8
		c-0.1,0-0.2,0-0.4,0c-0.3,0-0.5,0-0.7-0.1c-0.2-0.1-0.5-0.2-0.6-0.4c-0.1-0.2-0.1-0.4,0.1-0.6c0.2-0.2,0.5-0.3,0.8-0.4
		C17.7,6.6,17.9,6.6,18,6.6z"/>
</g>
</svg>
