<?xml version="1.0" encoding="utf-8"?>
<!-- Generator: Adobe Illustrator 19.2.1, SVG Export Plug-In . SVG Version: 6.00 Build 0)  -->
<svg version="1.1" id="Layer_1" xmlns="http://www.w3.org/2000/svg" xmlns:xlink="http://www.w3.org/1999/xlink" x="0px" y="0px"
	 viewBox="0 0 400 400" style="enable-background:new 0 0 400 400;" xml:space="preserve">
<style type="text/css">
	.st0{fill:#FFFFFF;}
</style>
<g>
	<path d="M161.2,197.1c0.1-0.1,0.1-0.3,0.2-0.5c0.3-4.1-0.9-7.9-1.3-12c-0.6-5.2-1.1-10.5-1.8-15.7c-0.4-2.8-1.1-5.6-0.3-8.5
		c-1.5,0.3-5.7,1.5-6.1,1.6c-11.8,2.5-24,0.5-34.8-4.8c-5.9-2.9-11.5-6.4-16.6-10.6c-5.9-4.9-14.6-12.1-11.6-20.9
		c1.4-4,5.1-7.7,9.6-7.2c6.8,0.8,11.2,8.4,15.9,12.5c5.4,4.6,11.9,8.5,18.9,10.3c6.4,1.6,20.1-1.7,20.1-2.2c0.3-1.3,0.2-4.1,0.5-5.6
		c1.4-6.7,4.2-13,11.1-15.7c6.7-2.7,14.2,0.8,19.5,4.8c13.6,10.2,12.6,28.1,16.2,42.9c2.2,9,1.4,18.3,1.5,27.4
		c0,3.4-0.3,6.9-0.8,10.3c-0.5,3.2-1.1,6.5-2.4,9.5c-2.2,5.3-5.3,9.9-11,12.2c-1.3,0.5-6.6,17.9-7,20.4c-0.4,2.5-0.4,5.1-0.8,7.7
		c-1.4,9.1-1.2,18.2-1.1,27.3c0,2.9,0.1,5.8,0.5,8.6c0.3,2.3,1.3,10.2,1.6,11.7c0.4,2.3,1.1,4.6,1.7,6.8c0.6,2.3,1.3,4.6,2,6.9
		c0.7,2.3,1.3,4.5,2,6.8c0.4,1.3,0.8,2.7,1.1,4c0.3,1.3,0.8,2.6,0.7,3.9c-0.4,5.8-2.6,10.9-7.8,13.8c-2.4,1.4-5.4,2.5-8.3,1.8
		c-3.6-0.8-7-2-9.4-5.3c-1.5-2-2.4-4-3.1-6.4c-0.7-2.8-6.9-28-7.7-31.6c-0.9-3.8-1-7.6-1.6-11.4c-0.7-4.5-1-18.6-1-21.2
		c0-4.3,0.8-17.8,1.1-20.3c0.4-3.1,1-6.1,1.5-9.2c0.7-3.8,1.8-7.4,2.8-11.1c-3.7-1.6-8.5-1.5-12.5-2.2c-4.7-0.8-9.5-1.7-14.2-2.5
		c-4.5-0.8-8.2-1.3-12.4,1.2c-5.4,3.3-9.9,8.4-14.5,12.6c-9,8.2-26.1,29.3-39.4,17.4c-3.5-3.1-5.5-8.2-4.8-12.8
		c0.8-5,5.2-7.8,8.6-11c8.8-8,17.4-16.4,26-24.7c6.5-6.3,14.7-17.2,25-16.3c14.6,1.3,28.9,5.5,43.5,7.1
		C160.8,197.2,161,197.2,161.2,197.1z M175,129.9 M182,143.4c0.2,0,0.4,0,0.6,0c0.1-1.9,0.3-3.9-0.6-5.8
		C182,139.5,182,141.5,182,143.4z"/>
	<path d="M327.6,192.4c1.2,1.4,1.7,3.4,1.6,5.2c0,1.7-0.4,3.4-0.6,5.2c-1.6,10.7-5.5,22.1-13.9,29.4c-4.1,3.6-9.9,4.9-15.2,3.7
		c-3.6-0.8-6.7-2.6-9.5-4.8c-1.4-1.1-2.8-2.3-4.1-3.5c-0.6-0.5-1.3-1.5-2-1.8c-1.1-0.6-1.7,1.9-2.1,2.6c-2.1,4.3-3.8,8.8-5.4,13.4
		c-1.5,4.3-3.3,8.8-4,13.4c-0.4,2.8-0.9,5.6-0.8,8.4c0.1,2.5,0.9,5,1.4,7.5c0.3,1.5,0.6,2.9,0.9,4.4c0.5,2.7,0.9,5.4,1.6,8
		c0.5,2,1.5,3.9,2.2,5.9c0.6,2,1,4.1,1.6,6.2c0.7,2.3,1.7,4.6,2.5,7c0.6,1.8,1.1,3.6,1.7,5.4c0.5,1.5,1.1,2.9,1.8,4.4
		c1.9,4.1,4,8.1,5.8,12.3c1.1,2.5,1.5,5.4,3.1,7.6c1.7,2.5,1.2,4.9,1.4,7.4c0.5,5.2-3.3,7.4-6.5,9.9c-0.8,0.6-2.5,0.2-3.7,0.3
		c-2,0.1-3.9,0-5.6-1.2c-2.4-1.6-3.8-3.9-5.1-6.4c-0.9-1.8-1.6-3.7-2.4-5.6c-5.7-12.6-11.1-25.4-15-38.7c-1.7-6-3.5-11.9-4.9-18
		c-0.5-2.3-1.6-5.2-4.7-4.8c-1.3,0.2-1.5,1.1-1.6,2.2c-1.1,10.7-1.2,21.5-1.4,32.2c-0.1,7.2-0.5,14.4-0.7,21.5
		c-0.2,4.4,1.3,10.5-1.9,14.2c-1.3,1.5-3,3.2-4.8,4.1c-1.8,0.8-4.2,0.8-6.1,0.4c-2.9-0.5-5.3-2.6-6.8-5.1c-1.7-2.9-1.8-5.7-1.8-9
		c0-14.6-0.1-29.3,1.1-43.9c0.4-5.1,0.9-10.1,1.2-15.2c0.2-3.8,0.4-7.7,0.8-11.5c0.3-3.3,0.9-6.5,1.5-9.7c1.5-7.1,3.4-14.1,5.5-21
		c1.4-4.8,2.9-9.6,4.6-14.3c0.9-2.4,1.8-4.7,2.7-7.1c1-2.3,2.4-4.6,3.1-6.9c-2-0.4-4.3,0.1-6.3,0.1c-4.1-0.1-7.9-0.9-11.3-3.2
		c-6.1-4.2-9-11.5-9.6-18.6c-0.3-3.5,2.1-6.7,5.4-7.7c2.6-0.8,5.6,0.4,7.1,2.5c0.9,1.3,1.1,3,1.6,4.5c0.3,1.2,0.7,2.3,1.1,3.5
		c0.2,0.7,0.5,2.2,1.1,2.6c0.2,0.1,0.4,0.2,0.6,0.2c1.9,0.4,3.9,1.1,5.9,1.2c5.8,0.5,11.2-3.5,16.7-4.5c3.4-0.6,6.3,0.5,9,2.6
		c3.9,3,7.8,6.1,11.7,9.1c3.3,2.6,6.8,5,9.9,7.9c3.9,3.7,6.8,8.4,10.9,12c2,1.8,5.7,4.3,8.4,2.8c0.9-0.5,1.6-1.3,2.2-2.2
		c4.7-6.9,6-16,8.5-23.8c0.6-2,2-3.5,4.1-4.1C323,189.7,325.8,190.4,327.6,192.4z"/>
	<path d="M149.9,61.9c2.1,0.2,4.2,0.2,6.3,0.5c2.8,0.4,5.1,2,7.4,3.5c2.7,1.8,4.9,4.1,6.8,6.8c1.2,1.7,2.2,3.5,2.8,5.5
		c0.8,2.4,1.9,4.9,2.2,7.4c0.3,2.6-0.3,5.2-0.5,7.9c-0.2,1.5-0.5,3-0.9,4.5c-0.5,1.8-1,3.6-2,5.2c-1.5,2.5-3.1,5.1-5.1,7.2
		c-1.6,1.6-3.9,2.6-6,3.8c-2.8,1.5-5.7,2.2-9,2.5c-2.7,0.2-5.4,0-7.8-0.4c-3-0.5-6.1-2.1-8.6-3.9c-4.1-3-7.2-6.9-9.1-11.8
		c-1.9-4.8-2.6-9.6-2.1-14.5c0.2-2.4,1.4-4.7,2.1-7.1c0.2-0.7,0.2-1.5,0.5-2.1c1.7-3.2,3.7-6.2,6.4-8.5c1.4-1.2,3-2,4.4-3.1
		c1.8-1.6,4-2.3,6.2-2.8c1.9-0.4,3.9-0.1,5.9-0.1C149.9,62.1,149.9,62,149.9,61.9z"/>
	<path d="M303.1,177c-0.1,9.5-6.3,18.9-16,20.3c-12.7,1.8-22.2-10.2-21.1-22.2c1-10.7,10.9-20.1,22.1-17.9c0.1,0,0.2,0,0.3,0.1
		C297.3,159.3,303.2,168,303.1,177z"/>
	<path d="M26.3,209.7c-1-3.9-2.5-7.6-4.3-11.2c-1.5-2.9-4-6.3-3.1-9.8c0.3-1,1.2-2,2.3-1.9c0.5,0,0.9,0.3,1.3,0.5
		c5.3,2.8,10.6,5.6,15.9,8.4c0.6-6.6,1.2-13.3,1.8-19.9c0.1-1,0.2-1.9,0.6-2.8c2.3-4.7,6.1,3,7,4.8c2.2,4.3,2.9,9.2,6.3,12.8
		c0.5,0.5,1.2,1,1.9,0.8c0.3-0.1,0.6-0.4,0.8-0.7c2.9-3.8,4-9,7.7-12c1-0.8,2.6-1.5,3.7-0.7c0.9,0.6,1.1,1.9,1.2,3
		c0.4,5.8,0.8,11.6,1.2,17.3c0.1,0.9,0.1,1.9-0.5,2.5c-0.8,0.8-2.2,0.6-3-0.3c-0.8-0.8-1-2-1.1-3.1c-0.3-2.4-0.1-5-0.8-7.3
		c-0.1-0.5-0.4-1-0.9-1.1c-0.3,0-0.5,0.1-0.7,0.2c-1.6,0.9-2.5,2.6-3.1,4.2c-0.7,1.7-1.3,3.4-2.5,4.7c-3.6,3.6-6-1.6-7.1-4.4
		c-0.7-1.8-1.4-3.6-2.4-5.3c-0.2-0.4-3.6-4.6-3.7-4.4c-1.8,5,0.4,10.5-1.4,15.4c-1.1,3.1-3.6,3.3-6.2,1.8c-3.1-1.7-6.5-4.4-9.8-5.5
		c-0.3,2.1,1.4,5.4,2.1,7.5c1,3,3.9,7,2.8,10.3c-1.5,4.5-10.7,3-14.2,2.5c3.3,3.6,6.8,6.8,10.7,9.7c1.4,1.1,3.1,2.4,3,4.2
		c0,1.1-0.7,2-1.4,2.8c-2,2.4-4.5,4.4-7.2,5.9c3.7-0.4,7.4,0.3,10.7,2.1c0.7,0.4,1.4,1,1.1,1.8c-0.2,0.5-0.8,0.7-1.3,0.8
		c-4.7,1-9.6,1.1-14.4,0.2c-1.3-0.3-2.8-0.7-3.4-1.9c-0.9-1.8,0.7-3.9,2.2-5.3c2-1.8,3.9-3.6,5.9-5.5c0.5-0.5,1.1-1.2,1-1.9
		c-0.1-0.4-0.4-0.7-0.6-0.9c-2.4-2.3-20.6-12.2-16.6-16.6c0.6-0.7,1.5-1,2.4-1.2c2.8-0.7,5.6-0.7,8.4-0.8
		C19.3,209.4,26.2,209.2,26.3,209.7C26.3,209.7,26.3,209.7,26.3,209.7z"/>
	<path d="M327.6,192.3c-0.7-0.1-1.4-0.5-1.7-1.4c-0.3-0.9,0.1-1.9,0.5-2.7c1-2.2,2.4-4.2,4-5.9c-0.7,0.5-1.6-0.1-2.2-0.7
		c-2.9-3.1-5.3-6.7-6.2-10.8c-1.1-4.7-0.2-9.6,1.3-14.1c2.3-6.8,6.2-13.1,11.3-18.1c1.6-1.5,3.2-2.9,5.1-3.9
		c0.8-0.4,1.7-0.8,2.7-0.7s1.8,0.8,1.9,1.8c0,1.1-1.1,1.9-2.1,2.5c-5.7,3.4-9.5,9.1-12.4,15.1c-1.5,3.1-2.8,6.4-3.3,9.9
		c-0.9,5.8,0.8,14.3,7.6,15.6c0.9,0.2,1.8,0.4,2.6,0.9c0.8,0.5,1.4,1.4,1.2,2.3c2.1,0.4,4.5,0.9,6.6,0.9c2.2,0.3,4.4,0.4,6.6,0.3
		c6.5-0.3,12.8-2.5,18.5-5.5c8.4-4.3,13.1-14.6,9.4-23.5c-1.4-3.3-3.3-6.7-5.9-9.3c-2.6-2.5-6-4.2-9.5-4.9c-2.3-0.5-4.7-0.2-7.1,0.2
		c-1.6,0.3-6.5,2.6-6.8-0.4c-0.1-0.8,0.4-1.7,1-2.2c0.8-0.7,1.9-0.9,2.8-1.5c0.7-0.5,1.1-1.3,1.5-2c1.1-2.1,2.4-4.2,4.2-5.8
		s4.3-2.5,6.7-2.1c-2.4,2.8-4.7,5.6-7.1,8.3c-0.1,0.1-0.2,0.3-0.2,0.5c0,0.4,0.6,0.5,1,0.5c4.9-0.2,9.9,1.2,14.1,3.9
		c8.2,5.4,12.2,15.1,10.9,24.7c-0.7,5.3-3.4,9.6-7.1,13.1c-3,2.9-6.6,5.1-10.6,6.5c-9.3,3.3-18.8,3.3-28.5,2.9
		c-1.2-0.1-2.6-1-2.2-2.2c-1.2,1.2-2.2,2.4-3.2,3.7c-0.8,1.1-1.5,2.4-2.5,3.3C329.8,192,328.6,192.4,327.6,192.3z"/>
	<path d="M345.8,149.2c0.4,3.1-0.4,4.4-2.8,4.2c-4.7-0.5-6.3,1.9-5.8,6.3c0.9-0.8,1.8-1.9,2.9-2.4c1.2-0.5,2.7-0.6,4-0.7
		c0.3,0,0.8,0.5,1,1c1.2,2.5-0.4,8.3-2.9,9.7c-2.6,1.5-4.8,1.4-7.4-1.7c-2.7-3-2.5-6.6-2.1-10.1c0.3-2.8,4.5-5.6,7.1-6.5
		C342,148.3,343.8,149.8,345.8,149.2z"/>
	<path d="M363,149.1c-3.9,0.4-5.5,1.6-5.9,4.2c1.9-1.9,5.5-2.6,7.2-1c0.8,0.8,1.3,2.1,1.5,3.2c0.6,5.3-3.2,8-8.5,8.4
		c-4.5,0.3-7.2-4.2-6.4-7c1-3.6,2.7-6.9,6-9.3c1.9-1.5,3.7-0.7,5.5-0.7C362.5,146.9,362.7,148.2,363,149.1z M360.3,154.9
		c-1.4,1.6-2.6,3.2-4,4.8c0.2,0.2,0.7,0.4,1.1,0.7c0.5,0.3,0.9,0.7,1.4,1.1C361.2,159.6,361.8,157.5,360.3,154.9z"/>
	<path d="M362.5,169.7c0.4,0-0.1,1.6-0.2,1.8c-0.5,1.2-1.7,1.3-2.9,1.2c-1.5,0-2.5,0.4-3.8,1c-1,0.4-2.1,0.6-3.2,0.9
		c-1.3,0.4-2.2,1.2-3.4,1.8c-1.3,0.7-2.8,1.2-4.3,1.7c-0.2,0.1-0.3,0.1-0.5,0.1c-0.9-0.2-0.5-2.3-0.1-2.8c1.3-1.9,3.7-3,5.7-3.8
		c1.9-0.8,3.8-1.6,5.9-1.8C358,169.4,360.3,169.6,362.5,169.7z"/>
	<path d="M352.2,134.2c-0.9,0.4-1.5,0.9-2.2,1.1c-0.7,0.2-1.5,0-2.3,0c-0.7-5.1,0.8-9.1,5.1-11.7c1.3-0.8,2.8-1.2,4.3-1.6
		c0.3-0.1,0.9,0.3,1,0.6c0.1,0.3-0.1,0.9-0.4,1.1c-0.6,0.6-1.3,1.1-2,1.6C352.9,127.6,351.9,130.6,352.2,134.2z"/>
	<path class="st0" d="M175.4,130.3c-5.8-0.8-14.3,7.2-18.5,8.6c-1.2,0.4-3.2,0.8-3.2,0.8c0.2-0.1,3.3-1.1,3.5-1.2
		C163.4,134.6,171.8,128.9,175.4,130.3z"/>
	<path class="st0" d="M158.1,160.8c2.2-1,10.5-5,12.5-5.9C168.8,157,160.1,160.2,158.1,160.8z"/>
	<path class="st0" d="M182.2,143.7c0-1.9,0-3.9,0-5.8c0.9,1.9,0.6,3.8,0.6,5.8C182.6,143.7,182.4,143.7,182.2,143.7z"/>
</g>
</svg>
