<?xml version="1.0" encoding="utf-8"?>
<!-- Generator: Adobe Illustrator 19.2.1, SVG Export Plug-In . SVG Version: 6.00 Build 0)  -->
<svg version="1.1"
	 id="Слой_1" inkscape:version="0.91 r13725" sodipodi:docname="pereklychatelMYsimple.svg" xmlns:cc="http://creativecommons.org/ns#" xmlns:dc="http://purl.org/dc/elements/1.1/" xmlns:inkscape="http://www.inkscape.org/namespaces/inkscape" xmlns:rdf="http://www.w3.org/1999/02/22-rdf-syntax-ns#" xmlns:sodipodi="http://sodipodi.sourceforge.net/DTD/sodipodi-0.dtd" xmlns:svg="http://www.w3.org/2000/svg"
	 xmlns="http://www.w3.org/2000/svg" xmlns:xlink="http://www.w3.org/1999/xlink" x="0px" y="0px" viewBox="0 0 95 95"
	 style="enable-background:new 0 0 95 95;" xml:space="preserve">
<style type="text/css">
	.st0{fill:#201600;}
	.st1{fill:#ED7D31;}
	.st2{fill:none;stroke:#201600;stroke-width:3;stroke-miterlimit:10;}
	.st3{fill:none;}
	.st4{font-family:'ArialMT';}
	.st5{font-size:16.6153px;}
	.st6{fill:none;stroke:#FAD9C2;stroke-width:1.6067;stroke-miterlimit:10;}
</style>
<sodipodi:namedview  bordercolor="#666666" borderopacity="1" gridtolerance="10" guidetolerance="10" id="namedview18" inkscape:current-layer="Слой_1" inkscape:cx="41.466507" inkscape:cy="770.26621" inkscape:pageopacity="0" inkscape:pageshadow="2" inkscape:window-height="988" inkscape:window-maximized="1" inkscape:window-width="1680" inkscape:window-x="-8" inkscape:window-y="-8" inkscape:zoom="4.4850931" objecttolerance="10" pagecolor="#ffffff" showgrid="false">
	</sodipodi:namedview>
<g id="g3443" transform="matrix(0.4615373,0,0,0.4615373,-70.294661,-182.88295)">
	<path id="XMLID_1_" class="st0" d="M296.7,496.9H214c-21.4,0-38.8-17.5-38.8-38.8l0,0c0-21.4,17.5-38.8,38.8-38.8h82.7
		c21.4,0,38.8,17.5,38.8,38.8l0,0C335.6,479.4,318.1,496.9,296.7,496.9z"/>
	<circle id="XMLID_2_" class="st1" cx="215.1" cy="458.1" r="33.9"/>
	<path id="XMLID_3_" class="st2" d="M168,458.1c0-25.8,20.9-46.7,46.7-46.7"/>
	<rect id="XMLID_4_" x="248" y="428.4" class="st3" width="86.6" height="59.3"/>
	<text transform="matrix(2.1667 0 0 2.1667 269.3049 455.45)" class="st1 st4 st5">ме</text>
	<text transform="matrix(2.1667 0 0 2.1667 269.0055 478.4498)" class="st1 st4 st5">ню</text>
	<path id="XMLID_6_" class="st2" d="M178.4,517.7c42.5,42.5,111.4,42.5,153.9,0"/>
	<path id="XMLID_7_" class="st0" d="M312.3,551.8l-4.9,2.5c-4.2,2.1-9.3,0.4-11.4-3.8l-3.6-7.3l20.2-10l3.6,7.3
		C318.2,544.5,316.4,549.7,312.3,551.8L312.3,551.8z"/>
</g>
<path id="XMLID_8_" class="st6" d="M63.5,7c13.8,0,25,11.2,25,25"/>
</svg>
