<?xml version="1.0" encoding="UTF-8" standalone="no"?>
<!-- Generator: Adobe Illustrator 19.2.1, SVG Export Plug-In . SVG Version: 6.00 Build 0)  -->

<svg
   xmlns:dc="http://purl.org/dc/elements/1.1/"
   xmlns:cc="http://creativecommons.org/ns#"
   xmlns:rdf="http://www.w3.org/1999/02/22-rdf-syntax-ns#"
   xmlns:svg="http://www.w3.org/2000/svg"
   xmlns="http://www.w3.org/2000/svg"
   xmlns:sodipodi="http://sodipodi.sourceforge.net/DTD/sodipodi-0.dtd"
   xmlns:inkscape="http://www.inkscape.org/namespaces/inkscape"
   version="1.1"
   id="Слой_1"
   inkscape:version="0.91 r13725"
   sodipodi:docname="pereklychatelMYsimple.svg"
   x="0px"
   y="0px"
   viewBox="0 0 95 95"
   style="enable-background:new 0 0 95 95;"
   xml:space="preserve"><metadata
     id="metadata20"><rdf:RDF><cc:Work
         rdf:about=""><dc:format>image/svg+xml</dc:format><dc:type
           rdf:resource="http://purl.org/dc/dcmitype/StillImage" /></cc:Work></rdf:RDF></metadata><defs
     id="defs18" /><style
     type="text/css"
     id="style3">
	.st0{fill:#201600;}
	.st1{fill:#ED7D31;}
	.st2{fill:none;stroke:#201600;stroke-width:3;stroke-miterlimit:10;}
	.st3{fill:none;}
	.st4{font-family:'ArialMT';}
	.st5{font-size:16.6153px;}
	.st6{fill:none;stroke:#FAD9C2;stroke-width:1.6067;stroke-miterlimit:10;}
</style><sodipodi:namedview
     bordercolor="#666666"
     borderopacity="1"
     gridtolerance="10"
     guidetolerance="10"
     id="namedview18"
     inkscape:current-layer="Слой_1"
     inkscape:cx="47.5"
     inkscape:cy="61.948669"
     inkscape:pageopacity="0"
     inkscape:pageshadow="2"
     inkscape:window-height="988"
     inkscape:window-maximized="1"
     inkscape:window-width="1680"
     inkscape:window-x="-8"
     inkscape:window-y="-8"
     inkscape:zoom="8.3052632"
     objecttolerance="10"
     pagecolor="#ffffff"
     showgrid="false" /><g
     id="g3348"><g
       transform="matrix(0.4615373,0,0,0.4615373,-70.294661,-182.88295)"
       id="g3443"><path
         d="M296.7,496.9H214c-21.4,0-38.8-17.5-38.8-38.8l0,0c0-21.4,17.5-38.8,38.8-38.8h82.7   c21.4,0,38.8,17.5,38.8,38.8l0,0C335.6,479.4,318.1,496.9,296.7,496.9z"
         class="st0"
         id="XMLID_1_" /><circle
         r="33.9"
         cy="458.1"
         cx="215.1"
         class="st1"
         id="XMLID_2_" /><path
         d="M168,458.1c0-25.8,20.9-46.7,46.7-46.7"
         class="st2"
         id="XMLID_3_" /><rect
         height="59.3"
         width="86.6"
         class="st3"
         y="428.4"
         x="248"
         id="XMLID_4_" /><text
         id="text11"
         class="st1 st4 st5"
         transform="matrix(2.1667 0 0 2.1667 269.3049 455.45)">ме</text>
<text
         id="text13"
         class="st1 st4 st5"
         transform="matrix(2.1667 0 0 2.1667 269.0055 478.4498)">ню</text>
<path
         d="M178.4,517.7c42.5,42.5,111.4,42.5,153.9,0"
         class="st2"
         id="XMLID_6_" /><path
         d="M312.3,551.8l-4.9,2.5c-4.2,2.1-9.3,0.4-11.4-3.8l-3.6-7.3l20.2-10l3.6,7.3   C318.2,544.5,316.4,549.7,312.3,551.8L312.3,551.8z"
         class="st0"
         id="XMLID_7_" /></g></g><path
     d="m 66.80813,7.0981188 c 11.82374,0 21.40188,9.5781442 21.40188,21.4018812"
     class="st7"
     id="XMLID_11_"
     inkscape:connector-curvature="0"
     style="fill:none;stroke:#fad9c2;stroke-width:1.37485313;stroke-miterlimit:10" /></svg>